# xmcd CD database file
#
# Track frame offsets:
#	150
#	16246
#	30868
#	46551
#	62575
#	73241
#	90199
#	108963
#	124680
#	136594
#
# Disc length: 2028 seconds
#
# Revision: 0
# Processed by: cddbd v1.5.2PL0 Copyright (c) Steve Scherf et al.
# Submitted via: CDex 1.77
#
DISCID=6a07ea0a
DTITLE=Farrel Knight - Wanted Man
DYEAR=1900
DGENRE=Country
TTITLE0=All The King Georges
TTITLE1=My ABC's
TTITLE2=Payment Due
TTITLE3=Phone in Heaven
TTITLE4=Is Your Heart Talking
TTITLE5=Ft Worth Girl
TTITLE6=Wanted Man
TTITLE7=Mightiest of Angles
TTITLE8=Hearts that Cheat no More
TTITLE9=Wide Were His Arms
EXTD=
EXTT0=
EXTT1=
EXTT2=
EXTT3=
EXTT4=
EXTT5=
EXTT6=
EXTT7=
EXTT8=
EXTT9=
PLAYORDER=
